<?xml version="1.0" encoding="utf-8"?>
<!-- Generator: Adobe Illustrator 16.0.0, SVG Export Plug-In . SVG Version: 6.00 Build 0)  -->
<!DOCTYPE svg PUBLIC "-//W3C//DTD SVG 1.1//EN" "http://www.w3.org/Graphics/SVG/1.1/DTD/svg11.dtd">
<svg version="1.1" id="Layer_1" xmlns="http://www.w3.org/2000/svg" xmlns:xlink="http://www.w3.org/1999/xlink" x="0px" y="0px"
	 width="792px" height="792px" viewBox="0 0 792 792" enable-background="new 0 0 792 792" xml:space="preserve">
<path fill="#2AADB7" stroke="#383838" stroke-width="29" stroke-miterlimit="10" d="M390.665,401.636c0,3.799,0,23.694-21.02,23.694
	H108.242C92,425.33,92,404.67,92,400.871V148.643c0-17.198,4.968-21.978,20.064-21.978h259.493c3.799,0,19.108,0,19.108,20.447
	V401.636z"/>
<path display="none" fill="#2AADB7" stroke="#000000" stroke-width="12" stroke-miterlimit="10" d="M247.167,303.361
	c0,0,14.667,70.667,98,76c83.333,5.333,111.999-69.33,112.667-82.332"/>
<g id="XMLID_2_">
	<path id="XMLID_10_" fill="#333333" d="M216.542,261.682l45.74-79.259c-6.634-1.397-13.617-2.444-20.95-2.444
		c-23.044,0-43.995,8.031-60.754,21.648l35.265,60.754L216.542,261.682z M332.813,247.367
		c-8.729-27.934-30.377-50.629-57.613-60.755l-34.916,60.755H332.813z M335.607,256.793h-71.928l2.793,4.888l45.741,79.261
		c15.711-17.109,25.14-39.805,25.14-64.944C337.353,269.364,336.654,263.079,335.607,256.793z M208.162,275.998l-37.71-64.944
		c-15.712,17.108-25.14,39.805-25.14,64.944c0,6.633,0.698,12.918,1.746,19.204h71.927L208.162,275.998z M149.852,304.978
		c8.729,27.934,30.377,50.629,57.612,60.754l35.266-60.754H149.852z M258.092,304.978l-37.709,64.596
		c6.634,1.396,13.617,2.444,20.95,2.444c23.045,0,43.995-8.031,60.755-21.648l-35.266-60.754L258.092,304.978z"/>
</g>
<circle display="none" stroke="#000000" stroke-width="12" stroke-miterlimit="10" cx="323.833" cy="291.332" r="14.333"/>
<circle fill="#414042" stroke="#414042" stroke-miterlimit="10" cx="337.352" cy="179.978" r="14.778"/>
<rect x="174.835" y="141.76" fill="none" width="264.556" height="296.181"/>
<text transform="matrix(1 0 0 1 174.835 327.4375)" fill="#FFFFFF" font-family="'Caveat-Regular'" font-size="290.0662">z</text>
<circle display="none" fill="none" stroke="#FFFFFF" stroke-width="6" stroke-miterlimit="10" cx="352.5" cy="387.165" r="214.5"/>
</svg>
